<svg xmlns="http://www.w3.org/2000/svg" width="22" height="16" viewBox="6 9 22 16">
    <path fill="#3E1602" fill-rule="evenodd" d="M14.177 13.113l-5.052.735-.106.024a.63.63 0 0 0-.243 1.05l3.655 3.561-.863 5.033-.01.1a.63.63 0 0 0 .924.563L17 21.803l4.518 2.376.093.04a.63.63 0 0 0 .82-.703l-.864-5.033 3.657-3.561.071-.082a.63.63 0 0 0-.42-.992l-5.053-.735-2.257-4.577a.63.63 0 0 0-1.13 0l-2.258 4.577zM17 10.238l1.841 3.73.065.104a.63.63 0 0 0 .409.24l4.115.598-2.977 2.904-.08.094a.63.63 0 0 0-.101.463l.702 4.1-3.681-1.936-.114-.046a.63.63 0 0 0-.472.046l-3.682 1.935.703-4.099.01-.122a.63.63 0 0 0-.19-.435l-2.979-2.904 4.116-.598a.63.63 0 0 0 .474-.344L17 10.238z"/>
</svg>
