<svg xmlns="http://www.w3.org/2000/svg" xmlns:xlink="http://www.w3.org/1999/xlink" viewBox="0 0 300 300"><defs><style>.cls-1{fill:url(#linear-gradient);}.cls-2{fill:#3e3a32;}.cls-3{fill:none;}.cls-4{fill:#fff;}</style><linearGradient id="linear-gradient" x1="-130.91" y1="280.91" x2="169.09" y2="280.91" gradientTransform="translate(-130.91 169.09) rotate(-90)" gradientUnits="userSpaceOnUse"><stop offset="0" stop-color="#765914"/><stop offset="1" stop-color="#f8d072"/></linearGradient></defs><g id="Layer_2" data-name="Layer 2"><g id="Layer_1-2" data-name="Layer 1"><circle class="cls-1" cx="150" cy="150" r="150"/><path class="cls-2" d="M272.73,150A122.73,122.73,0,1,1,150,27.27,122.73,122.73,0,0,1,272.73,150"/><path class="cls-3" d="M221.8,112.09a1.8,1.8,0,1,0-1.83-1.81A1.81,1.81,0,0,0,221.8,112.09Zm-.82-3h1c.55,0,.85.15.85.65a.57.57,0,0,1-.63.62l.66,1.15h-.45l-.6-1.12h-.43v1.12H221Z"/><path class="cls-3" d="M129.79,134.49c-8.32,0-10,10.19-10,17s1.69,17,10,17,10-10.18,10-17S138.11,134.49,129.79,134.49Z"/><path class="cls-3" d="M220.09,183.11c-8,0-9.57,9.77-9.57,16.33s1.6,16.31,9.57,16.31,9.59-9.78,9.59-16.31S228.08,183.11,220.09,183.11Z"/><path class="cls-3" d="M222.4,109.74c0-.24-.14-.29-.47-.29h-.6V110h.6C222.2,110,222.4,110,222.4,109.74Z"/><path class="cls-3" d="M211.66,144.51h16.79c0-4.35-1.49-10-7.92-10S211.66,141.48,211.66,144.51Z"/><path class="cls-3" d="M237.14,218.35a.48.48,0,0,0-.51-.48h0l.27.52h-.66l-.09-.18v.62h.53A.48.48,0,0,0,237.14,218.35Z"/><polygon class="cls-3" points="170.37 95.14 168.22 102.79 172.7 102.79 170.37 95.14"/><path class="cls-3" d="M235.5,217.39h.18l-.13-.25h-.4v1.25h-.6v-.72a2.43,2.43,0,0,0-.36,1.07,2.3,2.3,0,0,0,1.31.45Z"/><path class="cls-3" d="M234.55,215.26h1.2a1,1,0,0,1,1,.82,3.06,3.06,0,0,1,1.12.31,2.34,2.34,0,0,0-4.64.44,2.34,2.34,0,0,0,.47,1.41,2.81,2.81,0,0,1,.85-1.41Z"/><path class="cls-3" d="M237.63,218a2.52,2.52,0,0,0,.26-.91,2.33,2.33,0,0,0-1.22-.43.88.88,0,0,1-.53.45l.18.33h.38A1,1,0,0,1,237.63,218Z"/><path class="cls-3" d="M235.68,215.75h-.53v.67a2.74,2.74,0,0,1,1-.32A.45.45,0,0,0,235.68,215.75Z"/><path class="cls-3" d="M238.4,217.55a2.86,2.86,0,0,1-1.27,1.71l.67,1.26h-.66l-.53-1a2.73,2.73,0,0,1-.51.14v.86h-.6v-.81a3,3,0,0,1-1.29-.35,2.34,2.34,0,0,0,4.66-.39A2.37,2.37,0,0,0,238.4,217.55Z"/><path class="cls-4" d="M214.58,92.57c2.36.05,2.44,1.79,2.44,1.79h.13l.82-5.9H200.68v.18c1.65.06,1.65,5.65,1.65,8.08v12.64a6.32,6.32,0,0,0,.48,2.84h14.71L219,106l-.14,0s-.63,1.27-3.6,1.94a20.18,20.18,0,0,1-6.07.09v-6.48l5.2,0c1.29,0,1.3.67,1.3.67h.1l.75-4.73-7.35,0V92.48Z"/><path class="cls-4" d="M83.54,111.22l-.13-19.36c2,2.9,11.84,18.18,11.84,18.18.54.8,1.31,2.18,2.9,2.16h6a27.13,27.13,0,0,1-.41-6.1V84.88h92.18c1.4,0,4.09-.82,5.91-4.57l-.15-.08c-.21.2-.46.28-1.31.28H96.5v.18s1.5.83,1.5,7l.1,12.41C96.46,97.23,88.33,84.53,86,81.8a3.67,3.67,0,0,0-3.06-1.29H76.13v.18c.33.17,1.72,1,1.72,7.77v15.7c0,7.1-1.72,7.88-1.72,7.88v.16h6.34C83.28,112.2,83.54,111.8,83.54,111.22Z"/><path class="cls-4" d="M221.8,112.43a2.15,2.15,0,1,0-2.18-2.15A2.14,2.14,0,0,0,221.8,112.43Zm0-3.94a1.8,1.8,0,1,1-1.83,1.79A1.8,1.8,0,0,1,221.8,108.49Z"/><path class="cls-4" d="M214,84.32c2.29-1.36,2.86-3.74,2.73-6l-.17-.06s-1,1-5.05,2.9-9.36,3.87-9.36,3.87v.17S211.16,86,214,84.32Z"/><path class="cls-4" d="M204.75,150.42c0,13.8,7.24,20.79,20.12,20.79a26.72,26.72,0,0,0,9.91-1.49V167.1a13.73,13.73,0,0,1-5.82,1.06c-13.9,0-17.3-14-17.3-20.94h24.2v-1.81c0-9.51-6.74-13.62-14.23-13.62C209.63,131.79,204.75,138.43,204.75,150.42Zm23.7-5.91H211.66c0-3,2.55-10,8.87-10S228.45,140.16,228.45,144.51Z"/><path class="cls-4" d="M220.09,180.51c-10.23,0-16.66,7.12-16.66,18.93s6.43,18.9,16.66,18.9,16.7-7.09,16.7-18.9S230.33,180.51,220.09,180.51Zm0,35.24c-8,0-9.57-9.78-9.57-16.31s1.6-16.33,9.57-16.33,9.59,9.77,9.59,16.33S228.08,215.75,220.09,215.75Z"/><path class="cls-4" d="M196.61,92.57c2.36.05,2.47,1.79,2.47,1.79h.12l.82-5.9H183v.18c1.65.06,1.65,5.65,1.65,8.08v12.64a6.32,6.32,0,0,0,.48,2.84h7.83v-.11s-1.43-.23-1.43-3.09v-7.47c.59,0,3.78,0,5,0s1.31.67,1.31.67h.12l.73-4.73-7.15,0V92.48Z"/><path class="cls-4" d="M221.33,110.39h.43l.6,1.12h.45l-.66-1.15a.57.57,0,0,0,.63-.62c0-.5-.3-.65-.85-.65h-1v2.42h.35Zm0-.94h.6c.33,0,.47,0,.47.29s-.2.3-.47.3h-.6Z"/><path class="cls-4" d="M238.5,216.82a2.93,2.93,0,0,0-5.85,0,2.83,2.83,0,0,0,.95,2.11v0a2.94,2.94,0,1,0,4.9-2.15Zm-2.4,1.39.09.18h.66l-.27-.52h0a.48.48,0,1,1,0,1h-.53Zm-.95-1.79v-.67h.53a.45.45,0,0,1,.46.35A2.74,2.74,0,0,0,235.15,216.42Zm1.55,1h-.38l-.18-.33a.88.88,0,0,0,.53-.45,2.33,2.33,0,0,1,1.22.43,2.52,2.52,0,0,1-.26.91A1,1,0,0,0,236.7,217.39Zm-3.47-.56a2.34,2.34,0,0,1,4.64-.44,3.06,3.06,0,0,0-1.12-.31,1,1,0,0,0-1-.82h-1.2v1.57a2.81,2.81,0,0,0-.85,1.41A2.34,2.34,0,0,1,233.23,216.83Zm1.32.84v.72h.6v-1.25h.4l.13.25h-.18v1.8a2.3,2.3,0,0,1-1.31-.45A2.43,2.43,0,0,1,234.55,217.67Zm2,3.67a2.35,2.35,0,0,1-2.32-2,3,3,0,0,0,1.29.35v.81h.6v-.86a2.73,2.73,0,0,0,.51-.14l.53,1h.66l-.67-1.26a2.86,2.86,0,0,0,1.27-1.71,2.37,2.37,0,0,1,.47,1.42A2.34,2.34,0,0,1,236.53,221.34Z"/><path class="cls-4" d="M129.79,131.79c-10.65,0-17.37,7.4-17.37,19.69s6.72,19.73,17.37,19.73,17.39-7.4,17.39-19.73S140.42,131.79,129.79,131.79Zm0,36.7c-8.32,0-10-10.18-10-17s1.69-17,10-17,10,10.19,10,17S138.11,168.49,129.79,168.49Z"/><path class="cls-4" d="M170.74,197.38c-4.59-2.5-11.63-4.8-11.63-9.28,0-3.72,3.77-5,6.81-5,5.82,0,7.73,4.42,8.37,7h2.05l-.56-8.25a39.4,39.4,0,0,0-9.45-1.35c-6.71,0-13.62,2.44-13.62,9.78,0,3.23,1,5.2,4.26,7.48,4.51,3.23,15,6,15,11.57,0,2.7-2.77,6.4-8.1,6.4-6.91,0-8.88-4.81-9.7-7.58h-2.05l.58,8.76a36.58,36.58,0,0,0,10.59,1.41c9.1,0,15.09-3.86,15.09-10.63C178.39,201.8,174.94,199.6,170.74,197.38Z"/><path class="cls-4" d="M124.6,106l-.16,0s-.62,1.27-3.62,1.94a20,20,0,0,1-6,.09v-6.48l5.19,0c1.29,0,1.31.67,1.31.67h.11l.74-4.73-7.35,0V92.48l5.32.09c2.36.05,2.46,1.79,2.46,1.79h.13l.82-5.9H106.22v.18c1.64.06,1.65,5.65,1.65,8.08v12.64a6.21,6.21,0,0,0,.49,2.84h14.7Z"/><path class="cls-4" d="M138.4,180.55l.06,19.19c0,7.19-4.56,14.59-9.73,14.59-4.17,0-6.4-3.08-6.4-9.61V180.29l-12.29,0v1.36c2.4.15,6.07.39,6.07,5.12v19.66c0,7.33,3.51,11.89,10.22,11.89,8.53,0,10.92-6.84,12-9.46h.16v9.24l6.23.1v-37.7Z"/><path class="cls-4" d="M192.69,208.81V183.9h9.61v-2.58h-9.61V171.13a22.34,22.34,0,0,0,6.43-1.24v-2.38a23.15,23.15,0,0,1-4.66.64c-11.56,0-18.46-10-18.46-20.44,0-9.1,4.34-13.22,10-13.22,3.82,0,5.33,1.73,5.75,3.54.67,2.71,1.32,5.25,4.49,5.25a3.72,3.72,0,0,0,3.9-3.86c0-6-7.4-7.63-13.07-7.63-12.78,0-18,7.63-18,18.56,0,12.73,6.49,20.86,21.14,20.86h.33C190,178.51,186,181.32,180,181.32v2.58h6.46v22.7c0,8.83.66,11.74,12.69,11.74A33.1,33.1,0,0,0,203,218v-2.7a22,22,0,0,1-3.19.41C195.41,215.75,192.69,214.8,192.69,208.81Z"/><path class="cls-4" d="M167.75,168.87c-3.52,0-6.39-.76-6.39-6.15V120.45l-13,2v1.43c2.53.24,6.39.5,6.39,5.39v33.48c0,5.39-2.85,6.15-6.39,6.15v1.4h19.34Z"/><path class="cls-4" d="M173.84,106.61l.81,2.68c.8,2.46,1.39,2.91,1.39,2.91h8v-.11c-.77-.1-1.28-1.06-1.62-2.08L175,88.46H167v.17c.92.16,1.23,1,.8,2.35L161,112.2h6.22v-.11c-.34-.1-1-.56-.87-2a27.15,27.15,0,0,1,.78-3.43Zm-3.48-11.47,2.34,7.65h-4.48Z"/><path class="cls-4" d="M156,91.67A4.83,4.83,0,0,1,160.66,95l.12,0,1.93-5c-.45-.79-3-2.33-6.69-2.33-7.81,0-12.66,5.18-12.66,12.74,0,8.9,6.5,12.44,10.8,12.44,4,0,6-1.43,7.32-6.21l-.16,0a4.24,4.24,0,0,1-4,2c-2.94,0-7.26-1.92-7.26-9.14C150.1,93,154.25,91.67,156,91.67Z"/><path class="cls-4" d="M87,172.23c9.61-3,19.44-7.16,19.44-23.37,0-22.34-15.17-25-29.45-25H56.78v1.49c4.65,0,7.5.55,7.5,6.15l0,40.72C66.9,171.8,72,170.87,72,165v-32c0-5.85.69-6.28,5-6.28,16.35,0,20.92,8.29,20.92,22.09,0,12.42-4.27,18.26-15.54,21.85-9.62,3-19.33,7.19-19.33,23.41,0,8.47,2.19,14.12,5.68,17.87,4,4.86,10.29,7.49,19.27,7.49a91,91,0,0,0,17.86-2.1V191.74h-16V193c7.4,1,8.59,1.58,8.59,7.29v15.33a24.76,24.76,0,0,1-6,.63h0a37.51,37.51,0,0,1-4.93-.3c-12.22-1.93-15.73-12.16-16-22.65C71.73,181.41,76,175.72,87,172.23Z"/><path class="cls-4" d="M132.42,108.89a5.92,5.92,0,0,1-5.81-4.34l-.16,0-1.35,5.84a11.62,11.62,0,0,0,7.09,2.54c3.57,0,10.24-1,10.24-8.28,0-1.58-.75-4.69-5.06-6.79-.75-.33-2.73-1.28-4-1.88a2.53,2.53,0,0,1-1.75-2.22c0-1.49,1.91-2.13,3.08-2.13A4.8,4.8,0,0,1,139.59,95h.14l1.62-5.35a10,10,0,0,0-6.54-2c-3.89,0-9.23,1.79-9.23,7.83a6.88,6.88,0,0,0,4.11,6.14c1.15.58,2.91,1.34,4.14,2s2.15,1.36,2.15,2.61S135.05,108.89,132.42,108.89Z"/></g></g></svg>